<?xml version="1.0" encoding="utf-8"?>
<!-- Generator: Adobe Illustrator 23.0.0, SVG Export Plug-In . SVG Version: 6.00 Build 0)  -->
<svg version="1.1" id="Layer_1" xmlns="http://www.w3.org/2000/svg" xmlns:xlink="http://www.w3.org/1999/xlink" x="0px" y="0px"
	 viewBox="0 0 40 40" style="enable-background:new 0 0 40 40;" xml:space="preserve">
<style type="text/css">
	.st0{stroke:#000000;stroke-width:0.112;stroke-miterlimit:10;}
	.st1{fill:#FFFFFF;}
	.st2{fill:#22D3C5;}
	.st3{opacity:0.3;enable-background:new    ;}
</style>
<circle class="st0" cx="20" cy="20" r="20"/>
<path class="st1" d="M29.7,13.3c0,0,4.6,0.5,4.8,5.4c0.1,3-2.4,5.4-5.4,5.4c-1.5,0-2.4-0.4-3.3-1.1l-5.8-4.4l0,0v0l-5.4-4
	c-1.1-0.8-2.5-1.3-4-1.3C7,13.3,4,16.3,4,20c0,3.5,2.7,6.4,6.1,6.7c0,0-4.6-0.5-4.8-5.4c-0.1-3,2.4-5.4,5.4-5.4
	c1.5,0,2.4,0.4,3.2,1.1l4.7,3.5l6.4,4.8c1.1,0.8,2.5,1.3,4,1.3c3.7,0,6.7-3,6.7-6.7C35.8,16.5,33.1,13.6,29.7,13.3z"/>
<path class="st2" d="M16.2,26c-0.2,0.2,0,0.4,0.1,0.4h1.9c0.3,0,0.6-0.1,0.9-0.5c0,0,1.1-1.5,2.4-3.2l-1.8-1.4L16.2,26z M28.6,13.3
	c-2.7,0.2-4,1.6-5,2.9l-2.5,3.2l1.8,1.4c1.4-1.9,2.7-3.5,2.7-3.6c1-1.4,2.5-1.7,3.3-1.7c1.4,0,3.7,0.6,4.4,3.5c0,0,0,0.1,0.1,0.1
	c0,0,0.1,0,0.1-0.1C34.1,15.5,31.2,13.1,28.6,13.3z M23.6,14c0.2-0.2,0-0.4-0.1-0.4h-1.9c-0.3,0-0.6,0.1-0.9,0.5
	c0,0-6.5,8.5-6.5,8.6c-1,1.4-2.5,1.7-3.3,1.7c-1.4,0-3.7-0.6-4.4-3.5c0,0,0-0.1-0.1-0.1c0,0-0.1,0-0.1,0.1c-0.6,3.6,2.3,5.9,4.8,5.7
	c2.7-0.2,4-1.6,5-2.9L23.6,14z"/>
<g>
	<g id="LOGO_1_">
		<g id="LEFT_CURVE_1_">
			<g>
				<path class="st3" d="M19.8,21.3l-0.2,0.3l1.5,1.8c0.2-0.2,0.4-0.5,0.6-0.8L19.8,21.3z M20.1,18.7l-1.4,1.8l0.6,0.5l1.1-2.1
					L20.1,18.7z"/>
			</g>
		</g>
	</g>
</g>
<path class="st1" d="M19.5,19.4"/>
</svg>
