<?xml version="1.0" encoding="utf-8"?>
<!-- Generator: Adobe Illustrator 23.0.6, SVG Export Plug-In . SVG Version: 6.00 Build 0)  -->
<svg version="1.1" id="Layer_1" xmlns="http://www.w3.org/2000/svg" xmlns:xlink="http://www.w3.org/1999/xlink" x="0px" y="0px"
	 viewBox="0 0 70.7 265.9" style="enable-background:new 0 0 70.7 265.9;" xml:space="preserve">
<style type="text/css">
	.st0{fill:#B90C20;}
</style>
<g>
	<path class="st0" d="M70.6,251.2c0,5.6-2.9,10-8.6,11.7c-4.5,1.3-16.5,2.9-24.7,2.9c-5.4-0.1-17.9,0-29-3.4
		c-5.7-1.3-8.3-5.6-8.3-11.3C0,219.3-0.1,138.8,0,136c0.4-7.9,3.1-14.8,8.8-20.4c3-3,5.7-6.3,7-10.5c0.4-1.2,0.6-2.4,0.7-3.6
		c0.2-4.2,0.4-8.4,0.4-12.7C17,76.3,17,63.7,17,51.1c0-3.6,0.2-7.2,0.2-10.7c0-0.8-0.2-1.7-0.7-2.3c-1-1.5-0.7-2.7,0.1-4.1
		c1.4-2.2,2.7-4.5,4-6.8c0.5-1,0.4-1.7-0.3-2.8c-0.9-1.3-0.8-3.3-0.7-5c0.1-3,0.5-6.1,0.7-9.1c0.2-2.3,0.3-4.6,0.4-6.8
		c0.1-1.9,1.8-2,2.9-2.1C28,0.6,32.3,0,36.6,0c3.4,0,6.9,0.8,10.3,1.3c1,0.1,1.9,0.4,2.8,0.5c1.5,0.2,2,1,2.1,2.5
		c0.2,4.6,0.8,9.3,0.6,13.9c-0.1,2.3,0.7,4.9-1.2,7.1c-0.5,0.6-0.1,2.4,0.4,3.5c1,2,2.3,3.8,3.5,5.6c0.8,1.3,0.8,2.4,0,3.8
		c-0.5,1-0.9,2.2-0.9,3.3c-0.1,14.8-0.1,29.6-0.1,44.4c0,4.4,0,8.7,0,13.1c0,6.7,2.8,10.7,7.5,16.8c9,8.2,8.9,18,8.9,20.5
		C70.7,155.1,70.8,231.7,70.6,251.2z"/>
</g>
</svg>
