<?xml version="1.0" encoding="utf-8"?>
<!-- Generator: Adobe Illustrator 23.0.6, SVG Export Plug-In . SVG Version: 6.00 Build 0)  -->
<svg version="1.1" id="Layer_1" xmlns="http://www.w3.org/2000/svg" xmlns:xlink="http://www.w3.org/1999/xlink" x="0px" y="0px"
	 viewBox="0 0 368.7 368.5" style="enable-background:new 0 0 368.7 368.5;" xml:space="preserve">
<style type="text/css">
	.st0{fill:#1FD661;}
	.st1{fill:#F8FDFA;}
</style>
<g>
	<path class="st0" d="M107.8,16.1c15.1-6,30.5-11.3,46.6-13.8c22.1-3.4,44.1-3.2,66,1.2c32.6,6.5,61.3,20.8,86.1,42.8
		c32,28.5,51.9,63.9,59.4,106.1c12.9,72.7-19.6,146.8-81.3,186.6c-7.8,5-16,9.4-24.4,13.5c-3,0.6-5.7,1.7-8.1,3.6
		c-10.6,3.2-21.1,6.9-32.1,9c-29.8,5.6-59.3,4.6-88.3-4.3c-50.8-15.6-88.4-47.3-112.4-94.6c-17-33.5-22.5-69.2-17.5-106.6
		C7.5,117,26.3,81.1,56.7,51.2c12-11.8,25.6-21.5,40.5-29.4c1-0.5,2-1.2,2.9-1.9c1.5,0.1,2.5-0.6,3.3-1.8c0.3,0.1,0.6,0,0.7-0.3
		C105.7,17.9,106.9,17.4,107.8,16.1z M157.7,97.6c-22.5,0.1-44.9,1.7-67,6.1c-5.7,1.1-11.1,3.5-16.8,4.2
		c-10.5,1.4-18.3,10.5-16.7,19.8c1.9,10.9,11.2,17.1,22.3,14c15.8-4.4,31.8-7.1,48.1-8.6c33.4-3,66.5-1.1,99.3,5.7
		c23.7,4.9,46.4,12.5,67.4,24.8c6.1,3.6,12.3,2.7,17.8-1.4c10.1-7.5,9.4-21.7-1.4-28.4c-17.5-10.9-36.6-18.1-56.3-23.6
		C222.8,101.5,190.5,97.6,157.7,97.6z M154.1,161c-14.8,0.1-29.6,1.1-44.3,3.4c-10.6,1.7-21.3,3.8-31.4,7.6
		c-7.2,2.7-10.5,10.8-7.9,18.2c2.3,6.5,10.1,10.6,17,8.6c24-7,48.5-9.7,73.5-8.9c8.8,0.3,17.6,1,26.4,2.1
		c18.2,2.2,35.9,6.7,53.1,13.1c11.1,4.1,21.5,9.5,31.8,15.4c6.7,3.8,14.2,1.8,18.5-4.2c4.2-6,3.4-14-2.4-18.9
		c-2.5-2.1-5.5-3.7-8.4-5.3C240.8,170.5,198.5,161.5,154.1,161z M150.2,221.1c-22.4,0.9-43.3,3.2-63.9,8.6
		c-7.2,1.9-10.3,7.4-8.6,13.9c1.9,6.8,7.3,9.7,14.8,8c20.7-4.6,41.6-7.3,62.8-7.5c22.4-0.2,44.1,3.2,65.2,10.3
		c11.4,3.8,22,9.2,32.4,15.2c6,3.4,12.1,1.9,15.7-3.7c3.4-5.3,1.8-11.7-3.8-15.6c-2-1.4-4.2-2.6-6.4-3.9
		C224.4,227.2,187.6,220.3,150.2,221.1z"/>
	<path class="st1" d="M252.1,356.1c2.4-1.9,5.1-3,8.1-3.6C258.7,356.4,255.4,356.3,252.1,356.1z"/>
	<path class="st1" d="M107.8,16.1c-0.8,1.4-2.1,1.8-3.6,1.8C104.5,15.6,106.3,16.2,107.8,16.1z"/>
	<path class="st1" d="M103.4,18.2c-0.8,1.1-1.8,1.9-3.3,1.8C100.4,17.8,101.9,18.1,103.4,18.2z"/>
	<path class="st1" d="M157.7,97.6c32.8-0.1,65.1,3.9,96.7,12.7c19.7,5.5,38.8,12.7,56.3,23.6c10.8,6.7,11.4,21,1.4,28.4
		c-5.5,4.1-11.7,4.9-17.8,1.4c-21-12.3-43.7-20-67.4-24.8c-32.8-6.8-65.9-8.7-99.3-5.7c-16.3,1.5-32.3,4.2-48.1,8.6
		c-11.1,3.1-20.4-3.1-22.3-14c-1.6-9.3,6.2-18.4,16.7-19.8c5.7-0.8,11.1-3.1,16.8-4.2C112.8,99.3,135.2,97.7,157.7,97.6z"/>
	<path class="st1" d="M154.1,161c44.4,0.6,86.7,9.5,125.9,31.1c2.9,1.6,5.9,3.1,8.4,5.3c5.8,4.9,6.6,12.9,2.4,18.9
		c-4.3,6-11.9,8-18.5,4.2c-10.2-5.9-20.7-11.2-31.8-15.4c-17.2-6.4-34.8-10.9-53.1-13.1c-8.8-1.1-17.5-1.9-26.4-2.1
		c-25-0.7-49.5,1.9-73.5,8.9c-6.9,2-14.7-2-17-8.6c-2.6-7.4,0.7-15.5,7.9-18.2c10.1-3.8,20.8-5.9,31.4-7.6
		C124.5,162,139.2,161,154.1,161z"/>
	<path class="st1" d="M150.2,221.1c37.4-0.8,74.2,6.2,108.2,25.2c2.2,1.2,4.4,2.4,6.4,3.9c5.7,3.9,7.2,10.4,3.8,15.6
		c-3.6,5.5-9.7,7.1-15.7,3.7c-10.4-6-21-11.3-32.4-15.2c-21.2-7.1-42.9-10.5-65.2-10.3c-21.2,0.2-42.1,2.9-62.8,7.5
		c-7.4,1.7-12.9-1.2-14.8-8c-1.8-6.5,1.4-12,8.6-13.9C106.9,224.3,127.8,222,150.2,221.1z"/>
</g>
</svg>
